HIERARCHY
ROOT Hips
{
	OFFSET 0.000000 0.000000 0.000000 
	CHANNELS 6 Xposition Yposition Zposition Yrotation Zrotation Xrotation 
	JOINT Lumbar
	{
		OFFSET 0.000000 0.000000 0.000000 
		CHANNELS 3 Zrotation Xrotation Yrotation
		JOINT Neck
		{
			OFFSET 0.000000 0.445665 0.000000 
			CHANNELS 3 Zrotation Xrotation Yrotation
			End Site
			{
				OFFSET 0.000000 0.227535 0.000000 
			}
		}
		JOINT RightShoulder
		{
			OFFSET 0.019635 0.377685 0.194865 
			CHANNELS 3 Zrotation Xrotation Yrotation
			JOINT RightElbow
			{
				OFFSET 0.000000 -0.243375 0.000000 
				CHANNELS 2 Zrotation Yrotation
				JOINT RightWrist
				{
					OFFSET 0.000000 -0.264825 0.000000 
					CHANNELS 2 Zrotation Xrotation
					End Site
					{
						OFFSET 0.006600 -0.176220 0.000990 
					}
				}
			}
		}
		JOINT LeftShoulder
		{
			OFFSET 0.019635 0.377685 -0.194865 
			CHANNELS 3 Zrotation Xrotation Yrotation
			JOINT LeftElbow
			{
				OFFSET 0.000000 -0.243375 0.000000 
				CHANNELS 2 Zrotation Yrotation
				JOINT LeftWrist
				{
					OFFSET 0.000000 -0.264825 0.000000 
					CHANNELS 2 Zrotation Xrotation
					End Site
					{
						OFFSET 0.006600 -0.176220 -0.000990 
					}
				}
			}
		}
	}
	JOINT RightHip
	{
		OFFSET 0.052140 -0.069960 0.075570 
		CHANNELS 3 Zrotation Xrotation Yrotation
		JOINT RightKnee
		{
			OFFSET 0.000000 -0.402270 0.000000 
			CHANNELS 1 Zrotation
			JOINT RightAnkle
			{
				OFFSET 0.000000 -0.404085 0.000000 
				CHANNELS 3 Zrotation Xrotation Yrotation
				End Site
				{
					OFFSET 0.204105 -0.089430 0.008415 
				}
			}
		}
	}
	JOINT LeftHip
	{
		OFFSET 0.052140 -0.069960 -0.075570 
		CHANNELS 3 Zrotation Xrotation Yrotation
		JOINT LeftKnee
		{
			OFFSET 0.000000 -0.402270 0.000000 
			CHANNELS 1 Zrotation
			JOINT LeftAnkle
			{
				OFFSET 0.000000 -0.404085 0.000000 
				CHANNELS 3 Zrotation Xrotation Yrotation
				End Site
				{
					OFFSET 0.204105 -0.089430 -0.008415 
				}
			}
		}
	}
}
MOTION
Frames: 25
Frame Time: 0.02
-0.00405 -0.00044 0.00663 -9.51475 -22.24004 -0.25034 47.90362 2.27362 -9.54654 -13.18376 -6.80873 -1.06695 -24.08127 -9.52008 -9.958 36.35143 88.60351 5.2622 0.16672 -31.84542 15.72489 -6.3174 43.33195 -72.69398 6.37156 3.45327 31.28336 0.08734 -0.3115 -21.08013 -8.03911 -3.61305 -4.05679 37.7692 5.98655 -1.89516 -26.96106 -9.16721 4.33577 4.4861
-0.00246 -0.00044 0.00466 -9.87674 -22.19159 -0.18404 47.83702 2.40547 -9.23839 -13.2989 -6.67239 -1.07004 -24.09137 -9.72445 -9.92678 36.1835 88.53855 5.29271 0.16967 -31.97342 15.33743 -5.67295 43.11631 -77.04803 7.49418 2.69722 31.1548 -0.23094 -0.90566 -21.01461 -7.98966 -3.51611 -4.00743 37.5276 6.08968 -0.61714 -26.96735 -9.07132 4.28077 4.45284
-0.00088 -0.00043 0.00269 -10.23816 -22.14341 -0.11786 47.77056 2.5371 -8.93139 -13.41378 -6.53629 -1.07312 -24.10104 -9.92861 -9.89546 36.01614 88.474 5.32322 0.1726 -32.10109 14.9512 -5.03143 42.90132 -81.38332 8.61196 1.94441 31.0268 -0.54861 -1.49792 -20.94936 -7.94038 -3.41942 -3.95819 37.28659 6.19219 0.65726 -26.97359 -8.97569 4.22596 4.4197
0.00071 -0.00043 0.00073 -10.59914 -22.09513 -0.05174 47.70417 2.66859 -8.62418 -13.52858 -6.40034 -1.0762 -24.11107 -10.13242 -9.86432 35.84873 88.40927 5.35366 0.17555 -32.22872 14.56492 -4.38912 42.68633 -85.72293 9.73087 1.19087 30.89863 -0.86596 -2.09023 -20.88397 -7.89108 -3.32277 -3.90898 37.04571 6.29496 1.93141 -26.97986 -8.8801 4.17114 4.38655
0.00229 -0.00043 -0.00124 -10.96044 -22.04653 0.01444 47.63761 2.8002 -8.31585 -13.6436 -6.2642 -1.07929 -24.12162 -10.33625 -9.83332 35.68073 88.34403 5.38408 0.1785 -32.35661 14.17745 -3.74356 42.47073 -90.08374 10.85523 0.43366 30.76993 -1.18378 -2.6845 -20.81849 -7.84161 -3.22588 -3.85964 36.80428 6.39848 3.20905 -26.9862 -8.78424 4.11613 4.35328
0.00388 -0.00042 -0.00322 -11.32209 -21.99923 0.08062 47.57136 2.93186 -8.0117 -13.75816 -6.12819 -1.08236 -24.12943 -10.54106 -9.80133 35.51472 88.28092 5.41477 0.18141 -32.48378 13.7939 -3.11057 42.25704 -94.36542 11.95917 -0.30989 30.64344 -1.50112 -3.27249 -20.75386 -7.79274 -3.12962 -3.81063 36.56417 6.49885 4.47653 -26.99224 -8.6891 4.06173 4.32038
0.00546 -0.00042 -0.00517 -11.68271 -21.9494 0.14676 47.50468 3.06334 -7.69922 -13.87352 -5.99208 -1.08546 -24.14288 -10.74374 -9.77144 35.3449 88.21363 5.44487 0.1844 -32.61235 13.40276 -2.45297 42.03966 -98.80009 13.10266 -1.07984 30.51243 -1.81902 -3.87239 -20.68705 -7.7427 -3.03221 -3.76102 36.32171 6.60542 5.76305 -26.99885 -8.59266 4.00617 4.2868
0.00705 -0.00042 -0.00714 -12.04413 -21.90182 0.21289 47.43816 3.19486 -7.3949 -13.98816 -5.85608 -1.08854 -24.15087 -10.94829 -9.73948 35.17855 88.15014 5.47552 0.18731 -32.73946 13.01882 -1.81811 41.82585 -103.09646 14.21024 -1.82595 30.38601 -2.1365 -4.46145 -20.62321 -7.69376 -2.93584 -3.71196 36.08133 6.70632 7.03206 -27.00496 -8.49736 3.95166 4.25383
0.00864 -0.00041 -0.00914 -12.40736 -21.85735 0.27923 47.37273 3.32701 -7.09859 -14.1019 -5.72004 -1.09157 -24.15315 -11.15564 -9.70549 35.01658 88.09154 5.50684 0.19015 -32.86556 12.64272 -1.21076 41.61565 -107.21359 15.27194 -2.54106 30.26349 -2.45331 -5.03691 -20.55919 -7.64609 -2.84077 -3.66358 35.84373 6.80011 8.28005 -27.01039 -8.40362 3.89851 4.22165
0.0102 -0.00042 -0.011 -12.76271 -21.79607 0.34506 47.30375 3.45731 -6.75028 -14.22078 -5.58369 -1.09479 -24.19118 -11.34843 -9.68465 34.82983 88.00553 5.53432 0.19348 -32.99978 12.21862 -0.44425 41.3824 -112.33138 16.59165 -3.42893 30.11336 -2.77353 -5.68959 -20.48473 -7.59086 -2.73828 -3.61128 35.59081 6.93424 9.65018 -27.01953 -8.3014 3.83777 4.18504
0.01183 -0.0004 -0.01315 -13.133 -21.76954 0.41148 47.2405 3.59034 -6.51544 -14.32881 -5.44838 -1.09771 -24.15198 -11.57091 -9.63515 34.69507 87.97685 5.5699 0.19574 -33.11538 11.89767 -0.01405 41.19925 -115.35781 17.3709 -3.95594 30.0248 -3.08676 -6.17997 -20.43963 -7.55177 -2.65144 -3.56726 35.36983 6.98367 10.76171 -27.02098 -8.21677 3.7929 4.15771
0.01371 -0.0003 -0.01616 -13.55852 -21.8453 0.48358 47.20752 3.74051 -6.56443 -14.40712 -5.31298 -1.09888 -23.9141 -11.88368 -9.51381 34.70697 88.11483 5.62888 0.19627 -33.19106 11.84771 -0.51196 41.1425 -112.424 16.62049 -3.45263 30.08194 -3.37945 -6.21569 -20.41886 -7.55582 -2.60777 -3.54602 35.24059 6.79529 11.16441 -26.99974 -8.18347 3.79303 4.15672
0.01565 -0.00018 -0.01945 -13.99618 -21.95478 0.5554 47.17759 3.89148 -6.73255 -14.47465 -5.17932 -1.09993 -23.59674 -12.22416 -9.36255 34.77047 88.31107 5.6964 0.19611 -33.24561 11.90411 -1.34656 41.1379 -107.43064 15.33628 -2.59421 30.20678 -3.66552 -6.09014 -20.44009 -7.57634 -2.57971 -3.53306 35.14284 6.52306 11.30717 -26.97099 -8.16732 3.80883 4.16487
0.01754 -8e-05 -0.02259 -14.41929 -22.0442 0.62487 47.13679 4.03597 -6.86404 -14.5469 -5.04665 -1.10165 -23.30641 -12.54684 -9.22036 34.80758 88.47148 5.75846 0.19475 -33.303 11.91901 -2.02376 41.1169 -103.52498 14.3264 -1.92467 30.31383 -3.95531 -6.04449 -20.47621 -7.58999 -2.5444 -3.51629 35.02777 6.29248 11.56854 -26.94677 -8.14126 3.8165 4.16824
0.01955 7e-05 -0.02585 -14.8815 -22.15327 0.70533 47.13608 4.20692 -6.92153 -14.61934 -4.90591 -1.10076 -23.05208 -12.89353 -9.09667 34.85666 88.66153 5.82467 0.19738 -33.3904 11.90301 -2.7204 41.06601 -98.97683 13.18031 -1.13905 30.35981 -4.24147 -5.97069 -20.36046 -7.60087 -2.50998 -3.49982 34.92469 6.04601 11.8279 -26.91809 -8.12396 3.82844 4.17428
0.02131 0.00012 -0.02891 -15.26397 -22.22991 0.7622 47.05252 4.32215 -7.16181 -14.68954 -4.78305 -1.10531 -22.70669 -13.19428 -8.92805 34.89372 88.81615 5.88745 0.19456 -33.40839 11.9794 -3.45609 41.08872 -95.27597 12.19282 -0.51015 30.5571 -4.53442 -5.91721 -20.58163 -7.62167 -2.47714 -3.48458 34.80506 5.81374 12.02914 -26.89661 -8.09274 3.8352 4.17693
0.02239 -0.00014 -0.03144 -15.43291 -22.20421 0.75908 46.74016 4.29037 -7.87303 -14.7502 -4.70372 -1.12444 -22.10802 -13.38246 -8.63736 34.87933 88.74766 5.91033 0.15001 -33.25539 12.26032 -4.21673 41.31059 -94.45049 11.76374 -0.40981 31.0846 -4.84106 -5.96204 -21.62583 -7.66357 -2.44699 -3.47162 34.62327 5.63355 12.14056 -26.89939 -8.01664 3.82363 4.16782
0.02321 -0.00049 -0.03375 -15.51916 -22.14548 0.73104 46.3442 4.20139 -8.76439 -14.81019 -4.64342 -1.14911 -21.42593 -13.51943 -8.3038 34.85246 88.65949 5.93414 0.10432 -33.0299 12.63503 -5.00399 41.60312 -94.54339 11.51475 -0.47787 31.77383 -5.1561 -6.03348 -23.02135 -7.71523 -2.41751 -3.45946 34.42509 5.47241 12.20143 -26.90915 -7.92637 3.80628 4.15499
0.02414 -0.0008 -0.03611 -15.63724 -22.10492 0.71136 45.98602 4.13371 -9.57701 -14.8743 -4.57784 -1.17157 -20.79415 -13.66611 -7.993 34.83449 88.65656 5.97685 0.07767 -32.82806 12.983 -5.78054 41.85759 -94.19589 11.19016 -0.46315 32.43744 -5.47157 -6.08966 -24.32527 -7.76394 -2.38625 -3.44632 34.24043 5.30711 12.2806 -26.91418 -7.84405 3.79176 4.14401
0.02511 -0.00114 -0.03868 -15.78092 -22.05244 0.70517 45.62879 4.08497 -10.38287 -14.92156 -4.49773 -1.19281 -20.10119 -13.87132 -7.66607 34.80315 88.34471 5.94075 -0.02429 -32.66672 13.26799 -6.56716 42.13893 -93.87436 10.82065 -0.46257 32.90728 -5.76856 -6.14924 -25.36146 -7.80719 -2.3616 -3.43598 34.0323 5.11827 12.36949 -26.92584 -7.75592 3.77711 4.13277
0.02594 -0.00141 -0.04076 -15.85037 -22.01618 0.66376 45.24978 3.98435 -11.24121 -15.00435 -4.45287 -1.21781 -19.52446 -13.94171 -7.36451 34.79794 88.65687 6.06581 0.0267 -32.40159 13.70457 -7.32954 42.38048 -93.74285 10.59432 -0.47697 33.8107 -6.10651 -6.21559 -27.01546 -7.86362 -2.32334 -3.41999 33.86741 4.98612 12.43067 -26.92504 -7.67635 3.76091 4.12094
0.02633 -0.00153 -0.04163 -15.74406 -22.03552 0.54186 44.83029 3.74432 -12.22247 -15.18188 -4.49613 -1.25274 -19.22533 -13.65526 -7.12995 34.85065 90.81454 6.66171 0.53109 -31.88891 14.54038 -8.06124 42.49551 -93.92862 10.72318 -0.4948 35.9361 -6.55113 -6.24532 -30.48175 -7.95672 -2.24566 -3.38758 33.8373 4.98843 12.41776 -26.89179 -7.62349 3.74408 4.10935
0.0266 -0.00156 -0.042 -15.56397 -22.07171 0.38374 44.39204 3.45584 -13.24455 -15.39603 -4.57481 -1.2911 -19.05872 -13.23427 -6.92474 34.93256 93.57688 7.41446 1.18335 -31.27049 15.52423 -8.75797 42.56884 -94.28075 10.992 -0.52297 38.47962 -7.03682 -6.28857 -34.51979 -8.06231 -2.15462 -3.3496 33.849 5.05044 12.38095 -26.84524 -7.57975 3.72546 4.0971
0.02699 -0.00159 -0.04256 -15.41188 -22.09815 0.23479 43.96272 3.19635 -14.23422 -15.59568 -4.64057 -1.32732 -18.87322 -12.87271 -6.71559 35.0128 95.98722 8.07878 1.74821 -30.68651 16.43755 -9.44092 42.65909 -94.5563 11.19677 -0.54617 40.78959 -7.50753 -6.36137 -38.17202 -8.16019 -2.07052 -3.31444 33.83395 5.09743 12.3641 -26.80227 -7.53196 3.706 4.0844
0.02711 -0.00178 -0.04329 -15.28094 -22.13203 0.11433 43.5282 2.90592 -15.29312 -15.78584 -4.6946 -1.36619 -18.50879 -12.5163 -6.46673 35.04568 98.73008 8.81718 2.39979 -30.15713 17.36831 -10.25018 42.75563 -94.86818 11.40892 -0.57655 43.29027 -7.9659 -6.29376 -42.37566 -8.26644 -1.98224 -3.27778 33.85107 5.09545 12.31072 -26.76943 -7.48312 3.69301 4.07456
